# xmcd
#
# Track frame offsets:
#   150
#   19972
#   38156
#   60912
#   80119
#   92431
#   110110
#   126567
#   142770
#
# Disc length: 2094 seconds
#
# Revision: 0
# Processed by: cddbd v1.5.2PL0 Copyright (c) Steve Scherf et al.
# Submitted via: GXTranscoder 2.0.1939
#
DISCID=75082c09
DTITLE=Texas Lightning - nn
DYEAR=1900
DGENRE=Country
TTITLE0=Bleeding Love
TTITLE1=Clumsy
TTITLE2=Mony Mony
TTITLE3=Stark
TTITLE4=Little Drummer Boy
TTITLE5=Funka fliaga
TTITLE6=I han di gera
TTITLE7=Amazing grace
TTITLE8=I promise
EXTD=
EXTT0=
EXTT1=
EXTT2=
EXTT3=
EXTT4=
EXTT5=
EXTT6=
EXTT7=
EXTT8=
PLAYORDER=
